<svg width="113" height="45" viewBox="0 0 113 45" fill="none" xmlns="http://www.w3.org/2000/svg">
<path d="M14.5339 20.9326C13.9336 20.9326 13.4486 20.4462 13.4486 19.8442V8.67794L11.1658 19.8442C11.08 20.4462 10.7075 20.9326 10.1101 20.9326H8.76763C8.16734 20.9326 7.79771 20.4462 7.68239 19.8442L5.39954 8.67794V19.8442C5.39954 20.4462 4.91458 20.9326 4.34387 20.9326H2.20296C1.63224 20.9326 1.14729 20.4462 1.14729 19.8442V1.71722C1.14729 1.11517 1.63224 0.628776 2.20296 0.628776H6.25708C6.88398 0.628776 7.227 1.11517 7.34232 1.71722L9.42705 11.97L11.5118 1.71722C11.6537 1.08847 11.9967 0.628776 12.597 0.628776H16.6511C17.2514 0.628776 17.7364 1.11517 17.7364 1.71722V19.8442C17.7364 20.4462 17.2514 20.9326 16.6511 20.9326H14.5339Z" fill="black"/>
<path d="M23.2394 20.9326H20.8708C20.2705 20.9326 19.7856 20.4462 19.7856 19.8442V1.71722C19.7856 1.11517 20.2705 0.628776 20.8708 0.628776H23.2394C23.8397 0.628776 24.3247 1.11517 24.3247 1.71722V19.8442C24.3247 20.4462 23.8397 20.9326 23.2394 20.9326Z" fill="black"/>
<path d="M32.1756 21.5346C28.8342 21.5346 26.0368 20.0161 26.0368 15.9233V14.7786C26.0368 14.1765 26.5218 13.6901 27.122 13.6901H29.4906C30.0909 13.6901 30.5463 14.1765 30.5463 14.7786V15.9797C30.5463 16.9525 31.2885 17.7829 32.2023 17.7829C33.3733 17.7829 33.9144 17.0948 33.9144 16.1517V15.2056C33.9144 14.3189 33.2875 13.8888 32.288 13.2304L28.2635 10.6235C26.6075 9.56469 26.093 7.90384 26.093 6.04132C26.093 2.11758 28.1777 0 32.2318 0C35.7448 0 38.3973 1.88921 38.3973 5.58459V6.29935C38.3973 6.87175 37.9123 7.35814 37.3121 7.35814H34.9139C34.3432 7.35814 33.8582 6.87175 33.8582 6.29935V5.58459C33.8582 4.38344 33.0569 3.78139 32.2318 3.78139C31.2885 3.78139 30.6025 4.38344 30.6025 5.47189V6.18665C30.6025 7.04673 31.0875 7.39076 32.1461 8.07586L35.7448 10.4248C37.9419 11.8572 38.5156 12.658 38.5156 15.4073C38.5156 19.7018 36.3451 21.5346 32.1756 21.5346Z" fill="black"/>
<path d="M45.4204 21.5346C42.0789 21.5346 39.2815 20.0161 39.2815 15.9233V14.7786C39.2815 14.1765 39.7665 13.6901 40.3668 13.6901H42.7354C43.3356 13.6901 43.791 14.1765 43.791 14.7786V15.9797C43.791 16.9525 44.5332 17.7829 45.447 17.7829C46.618 17.7829 47.1591 17.0948 47.1591 16.1517V15.2056C47.1591 14.3189 46.5322 13.8888 45.5327 13.2304L41.5082 10.6235C39.8522 9.56469 39.3377 7.90384 39.3377 6.04132C39.3377 2.11758 41.4224 0 45.4766 0C48.9895 0 51.642 1.88921 51.642 5.58459V6.29935C51.642 6.87175 51.1571 7.35814 50.5568 7.35814H48.1586C47.5879 7.35814 47.1029 6.87175 47.1029 6.29935V5.58459C47.1029 4.38344 46.3045 3.78139 45.4766 3.78139C44.5332 3.78139 43.8502 4.38344 43.8502 5.47189V6.18665C43.8502 7.04673 44.3351 7.39076 45.3908 8.07586L48.9895 10.4248C51.1866 11.8572 51.7603 12.658 51.7603 15.4073C51.7603 19.7018 49.5898 21.5346 45.4233 21.5346H45.4204Z" fill="black"/>
<path d="M56.9558 20.9326H54.5872C53.9869 20.9326 53.5019 20.4462 53.5019 19.8442V1.71722C53.5019 1.11517 53.9869 0.628776 54.5872 0.628776H56.9558C57.556 0.628776 58.041 1.11517 58.041 1.71722V19.8442C58.041 20.4462 57.556 20.9326 56.9558 20.9326Z" fill="black"/>
<path d="M66.0904 21.5346C62.7489 21.5346 59.8953 19.5861 59.8953 15.9233V5.58459C59.8953 1.91887 62.7518 0 66.0904 0C69.4289 0 72.315 1.88921 72.315 5.58459V15.9204C72.315 19.6158 69.4584 21.5317 66.0904 21.5317V21.5346ZM67.7759 5.58459C67.7759 4.61181 67.0337 3.78139 66.0933 3.78139C65.153 3.78139 64.4078 4.61181 64.4078 5.58459V15.9797C64.4078 16.9525 65.15 17.7829 66.0933 17.7829C67.0366 17.7829 67.7759 16.9525 67.7759 15.9797V5.58459Z" fill="black"/>
<path d="M86.6478 20.9326H83.877C83.191 20.9326 82.9367 20.4166 82.6794 19.8442L78.4538 9.9651V19.8442C78.4538 20.4462 77.9688 20.9326 77.3685 20.9326H74.9704C74.3997 20.9326 73.9147 20.4462 73.9147 19.8442V1.71722C73.9147 1.11517 74.3997 0.628776 74.9704 0.628776H77.7116C78.4538 0.628776 78.6815 1.17152 78.9092 1.71722L83.191 11.798V1.71722C83.191 1.11517 83.6759 0.628776 84.2762 0.628776H86.6448C87.2451 0.628776 87.7301 1.11517 87.7301 1.71722V19.8442C87.7301 20.4462 87.2451 20.9326 86.6448 20.9326H86.6478Z" fill="black"/>
<path d="M13.5049 44.997H11.1363C10.536 44.997 10.193 44.5106 10.051 43.9086L9.45076 41.0169H5.13937L4.56866 43.9086C4.45629 44.5106 4.0837 44.997 3.51299 44.997H1.11481C0.570712 44.997 0 44.5966 0 44.0806C0 44.0242 0 43.9946 0.0295706 43.9086L3.88262 25.7816C3.99499 25.1796 4.36758 24.6932 4.93829 24.6932H9.67845C10.2492 24.6932 10.6218 25.1796 10.7341 25.7816L14.5872 43.9086C14.6167 43.9946 14.6167 44.0213 14.6167 44.0806C14.6167 44.5966 14.046 44.997 13.5019 44.997H13.5049ZM7.30985 29.9931L5.85498 37.2652H8.73811L7.30985 29.9931Z" fill="black"/>
<path d="M49.1049 28.6199H46.5352V43.9116C46.5352 44.5136 46.0503 45 45.45 45H43.0518C42.4811 45 41.9961 44.5136 41.9961 43.9116V28.6199H39.4265C38.8558 28.6199 38.3974 28.1632 38.3974 27.6175V25.7283C38.3974 25.1559 38.8558 24.6962 39.4265 24.6962H49.1049C49.6756 24.6962 50.134 25.1559 50.134 25.7283V27.6175C50.134 28.1602 49.6786 28.6199 49.1049 28.6199Z" fill="black"/>
<path d="M62.4619 44.997H59.978C59.3777 44.997 58.9223 44.5106 58.9223 43.9086V37.8376C58.9223 37.0932 58.5793 36.6928 57.979 36.6928H55.637V43.9086C55.637 44.5106 55.152 44.997 54.5517 44.997H52.1831C51.5829 44.997 51.0979 44.5106 51.0979 43.9086V25.7816C51.0979 25.1796 51.5829 24.6932 52.1831 24.6932H59.1766C61.5481 24.6932 63.2011 26.3244 63.2011 28.4153V30.9925C63.2011 33.1101 62.5151 34.5723 60.4038 34.771C62.66 34.8866 63.5146 36.4615 63.5146 38.5524V43.9086C63.5146 44.5106 63.0296 44.997 62.4589 44.997H62.4619ZM58.9223 29.5334C58.9223 28.9313 58.4078 28.4182 57.7809 28.4182H55.6399V32.9411H57.7809C58.4078 32.9411 58.9223 32.425 58.9223 31.7963V29.5334Z" fill="black"/>
<path d="M75.4257 44.997C74.8254 44.997 74.4824 44.5106 74.3404 43.9086L73.7401 41.0169H69.4288L68.858 43.9086C68.7427 44.5106 68.3731 44.997 67.8024 44.997H65.4042C64.8631 44.997 64.2894 44.5966 64.2894 44.0806C64.2894 44.0242 64.2894 43.9946 64.319 43.9086L68.175 25.7816C68.2903 25.1796 68.6599 24.6932 69.2306 24.6932H73.9708C74.5415 24.6932 74.9111 25.1796 75.0265 25.7816L78.8825 43.9086C78.912 43.9946 78.912 44.0213 78.912 44.0806C78.912 44.5966 78.3413 44.997 77.7972 44.997H75.4257ZM71.5992 29.9931L70.1444 37.2652H73.0275L71.5992 29.9931Z" fill="black"/>
<path d="M89.241 44.997H81.0174C80.4171 44.997 79.9322 44.5106 79.9322 43.9086V25.7816C79.9322 25.1796 80.4171 24.6932 81.0174 24.6932H83.4156C83.9863 24.6932 84.4713 25.1796 84.4713 25.7816V40.9013H89.238C89.8087 40.9013 90.2671 41.361 90.2671 41.9334V43.9649C90.2671 44.5373 89.8117 44.997 89.238 44.997H89.241Z" fill="black"/>
<path d="M95.1492 44.997H92.7806C92.1803 44.997 91.6953 44.5106 91.6953 43.9086V25.7816C91.6953 25.1796 92.1803 24.6932 92.7806 24.6932H95.1492C95.7495 24.6932 96.2344 25.1796 96.2344 25.7816V43.9086C96.2344 44.5106 95.7495 44.997 95.1492 44.997Z" fill="black"/>
<path d="M108.542 44.997C107.942 44.997 107.599 44.5106 107.457 43.9086L106.856 41.0169H102.545L101.974 43.9086C101.862 44.5106 101.489 44.997 100.919 44.997H98.5205C97.9793 44.997 97.4086 44.5966 97.4086 44.0806C97.4086 44.0242 97.4086 43.9946 97.4382 43.9086L101.294 25.7816C101.407 25.1796 101.779 24.6932 102.35 24.6932H107.09C107.661 24.6932 108.033 25.1796 108.146 25.7816L112.002 43.9086C112.031 43.9946 112.031 44.0213 112.031 44.0806C112.031 44.5966 111.461 44.997 110.916 44.997H108.542ZM104.715 29.9931L103.261 37.2652H106.144L104.715 29.9931Z" fill="black"/>
<path d="M35.5763 32.686C35.5763 32.686 32.4033 30.6515 32.2141 30.5477C31.6582 30.2422 31.2176 29.8329 31.2176 29.4296C31.2176 29.4296 30.7444 27.4721 32.7878 27.6975C33.3407 27.7598 33.9321 28.1543 33.9321 28.9817V29.5156C33.9321 30.0197 34.3698 30.4439 34.8902 30.4439H36.7147C37.9804 30.4439 37.6935 28.9817 37.6935 28.9817C37.7822 26.6743 35.8128 24.6872 32.7878 24.6872C29.4463 24.6872 27.4503 26.3629 27.4503 29.2664C27.4503 30.9184 28.021 31.82 29.2009 32.5466L32.7552 34.8154C33.5389 35.3137 33.9588 35.7348 33.9588 36.3043C33.9588 36.3043 34.1865 37.8969 32.705 38.0007C31.6523 38.0748 31.1762 37.5825 31.117 36.7432L31.0608 35.8475C31.0608 35.3167 30.6409 34.8985 30.1028 34.8985H28.3818C27.8406 34.8985 27.403 35.3256 27.403 35.8475V36.6987C27.403 39.881 30.1589 41.0139 32.7405 41.0139C36.1292 41.0139 37.7793 39.8098 37.7793 36.6483C37.7793 34.5278 37.2825 33.7566 35.5733 32.683L35.5763 32.686Z" fill="#E20C8B"/>
<path d="M20.7586 41.0525C17.911 41.0525 15.4537 39.454 15.4537 36.4466V25.6126C15.4537 25.1173 15.8676 24.7199 16.3792 24.7199H18.4225C18.9105 24.7199 19.3244 25.1203 19.3244 25.6126V36.4466C19.3244 37.2444 19.9573 37.9266 20.7586 37.9266C21.56 37.9266 22.2194 37.2444 22.2194 36.4466V25.6126C22.2194 25.1173 22.6334 24.7199 23.1213 24.7199H25.1646C25.6762 24.7199 26.0665 25.1203 26.0665 25.6126V36.4466C26.0665 39.454 23.6329 41.0525 20.7616 41.0525H20.7586Z" fill="#E20C8B"/>
<path d="M16.5535 42.1232H36.6142C37.0607 42.1232 37.4244 42.488 37.4244 42.9358V44.1844C37.4244 44.6323 37.0607 44.9971 36.6142 44.9971H16.5535C16.107 44.9971 15.7433 44.6323 15.7433 44.1844V42.9358C15.7433 42.488 16.107 42.1232 16.5535 42.1232Z" fill="#E20C8B"/>
</svg>
